<?xml version="1.0" encoding="utf-8"?>
<!-- Generator: Adobe Illustrator 26.0.0, SVG Export Plug-In . SVG Version: 6.00 Build 0)  -->
<svg version="1.1" id="Calque_1" xmlns="http://www.w3.org/2000/svg" xmlns:xlink="http://www.w3.org/1999/xlink" x="0px" y="0px"
	 viewBox="0 0 841.89 595.28" style="enable-background:new 0 0 841.89 595.28;" xml:space="preserve">
<style type="text/css">
	.st0{fill:#27348B;}
	.st1{fill:url(#SVGID_1_);}
	.st2{fill:url(#SVGID_00000104668026471394195350000004090216258032737169_);}
	.st3{fill:url(#SVGID_00000156584036099835080910000009789690028230766466_);}
	.st4{fill:url(#SVGID_00000040548264191180288560000014640237394671180194_);}
	.st5{fill:url(#SVGID_00000148647235593009201310000007352590364775039890_);}
	.st6{fill:url(#SVGID_00000047020821336426969540000017609230569118060444_);}
	.st7{opacity:0.75;}
	.st8{fill:url(#SVGID_00000134931453950823309990000013522267985710693515_);}
	.st9{fill:url(#SVGID_00000048477353448676189230000009606243031335488160_);}
	.st10{fill:url(#SVGID_00000082360759869244753330000002043744424278429603_);}
	.st11{fill:url(#SVGID_00000010992612178816637250000004577043695022559930_);}
	.st12{fill:url(#SVGID_00000142888104251975527150000009359874501024350342_);}
	.st13{fill:url(#SVGID_00000114074436254166819250000013822106888094703027_);}
	.st14{opacity:0.5;}
	.st15{fill:url(#SVGID_00000127041781601406320340000007542322738033250739_);}
	.st16{fill:url(#SVGID_00000108308834223351049860000010763586819945886876_);}
	.st17{fill:url(#SVGID_00000115502676987866439950000002362754633231532943_);}
	.st18{fill:url(#SVGID_00000001631983687173209430000008186295584815962530_);}
	.st19{fill:url(#SVGID_00000075158879817334492440000007073417328954013339_);}
	.st20{fill:url(#SVGID_00000016794443475902395790000012787797349935402161_);}
	.st21{opacity:0.25;}
	.st22{fill:url(#SVGID_00000164488342914115642490000009112491982798399113_);}
	.st23{fill:url(#SVGID_00000143618989909741397650000001754526034493987221_);}
	.st24{fill:url(#SVGID_00000096748975296943321640000002783225235765405069_);}
	.st25{fill:url(#SVGID_00000033359937036219424520000017838050632603283374_);}
	.st26{fill:url(#SVGID_00000079471976825832085980000014717490656578261910_);}
	.st27{fill:url(#SVGID_00000031171095720623006600000012291574610444578211_);}
	.st28{opacity:0.1;}
	.st29{fill:url(#SVGID_00000080196947465700428910000007175677421853982087_);}
	.st30{fill:url(#SVGID_00000136386323395509165680000005086668841561216693_);}
	.st31{fill:url(#SVGID_00000103257154396893049390000014972018974420010898_);}
	.st32{fill:url(#SVGID_00000101818410011393203940000000847250474004939148_);}
	.st33{fill:url(#SVGID_00000134943420980692450890000008717321626348803208_);}
	.st34{fill:url(#SVGID_00000078009276416840338330000003404425981051751568_);}
	.st35{fill:#F6DF1C;}
	.st36{fill:#020203;}
	.st37{fill:#E7700A;}
	.st38{fill:#5482A1;}
	.st39{fill:#45B282;}
	.st40{fill:#354A5E;}
	.st41{opacity:0.15;}
	.st42{fill:#E55212;}
	.st43{fill:#ED6D1A;}
	.st44{fill:#EEEEED;}
	.st45{fill:#FFFFFF;}
</style>
<rect x="-0.12" y="-0.11" class="st0" width="842.17" height="595.53"/>
<g>
	
		<linearGradient id="SVGID_1_" gradientUnits="userSpaceOnUse" x1="-1581.1277" y1="2090.9333" x2="-1581.095" y2="2090.9333" gradientTransform="matrix(2326.3811 -2326.3811 -2326.3811 -2326.3811 8543307 1186210.125)">
		<stop  offset="0" style="stop-color:#AF5EA1"/>
		<stop  offset="0.108" style="stop-color:#AF5EA1"/>
		<stop  offset="0.173" style="stop-color:#C65FA0"/>
		<stop  offset="0.492" style="stop-color:#E97650"/>
		<stop  offset="0.716" style="stop-color:#F0821E"/>
		<stop  offset="0.823" style="stop-color:#F1871A"/>
		<stop  offset="1" style="stop-color:#F1871A"/>
	</linearGradient>
	<path class="st1" d="M789.12,132.73h-40.75l-38.91,40.92h38.67l0.18-0.18L789.12,132.73z"/>
	
		<linearGradient id="SVGID_00000040571848187443177180000014645799833159511472_" gradientUnits="userSpaceOnUse" x1="-1580.4617" y1="2091.3931" x2="-1580.429" y2="2091.3931" gradientTransform="matrix(1133.9193 -1133.9193 -1133.9193 -1133.9193 4164320.75 579584)">
		<stop  offset="0" style="stop-color:#44A7DF"/>
		<stop  offset="0.296" style="stop-color:#44A7DF"/>
		<stop  offset="0.694" style="stop-color:#5878BA"/>
		<stop  offset="1" style="stop-color:#6E5FA6"/>
	</linearGradient>
	<path style="fill:url(#SVGID_00000040571848187443177180000014645799833159511472_);" d="M789.12,214.56h-81.83H789.12z
		 M748.31,173.46l-0.18,0.18h0.36L748.31,173.46z"/>
	
		<linearGradient id="SVGID_00000106110325393258661530000007528929930967525787_" gradientUnits="userSpaceOnUse" x1="-1580.6736" y1="2089.5623" x2="-1580.6409" y2="2089.5623" gradientTransform="matrix(795.4583 -795.4791 -795.4791 -795.4583 2920269.5 404922.0938)">
		<stop  offset="0" style="stop-color:#44A7DF"/>
		<stop  offset="0.296" style="stop-color:#44A7DF"/>
		<stop  offset="0.694" style="stop-color:#5878BA"/>
		<stop  offset="1" style="stop-color:#6E5FA6"/>
	</linearGradient>
	<path style="fill:url(#SVGID_00000106110325393258661530000007528929930967525787_);" d="M748.38,132.73h-41.09v43.21v-2.29h2.18
		L748.38,132.73z"/>
	
		<linearGradient id="SVGID_00000006677542430193091010000012442037316108440510_" gradientUnits="userSpaceOnUse" x1="-1581.1277" y1="2090.9331" x2="-1581.095" y2="2090.9331" gradientTransform="matrix(2326.3811 -2326.3811 -2326.3811 -2326.3811 8543307 1186210.125)">
		<stop  offset="0" style="stop-color:#A65099"/>
		<stop  offset="0.108" style="stop-color:#A65099"/>
		<stop  offset="0.173" style="stop-color:#B35194"/>
		<stop  offset="0.492" style="stop-color:#CB6645"/>
		<stop  offset="0.716" style="stop-color:#D87213"/>
		<stop  offset="0.823" style="stop-color:#DE770D"/>
		<stop  offset="1" style="stop-color:#DE770D"/>
	</linearGradient>
	<path style="fill:url(#SVGID_00000006677542430193091010000012442037316108440510_);" d="M748.13,173.65h-38.67l-2.18,2.29v38.63
		L748.13,173.65z"/>
	
		<linearGradient id="SVGID_00000028289373405791517520000005727912555175397509_" gradientUnits="userSpaceOnUse" x1="-1580.4617" y1="2091.3931" x2="-1580.429" y2="2091.3931" gradientTransform="matrix(1133.9193 -1133.9193 -1133.9193 -1133.9193 4164320.75 579584)">
		<stop  offset="0" style="stop-color:#1F96D4"/>
		<stop  offset="0.296" style="stop-color:#1F96D4"/>
		<stop  offset="0.694" style="stop-color:#4B6AB1"/>
		<stop  offset="1" style="stop-color:#64539F"/>
	</linearGradient>
	<path style="fill:url(#SVGID_00000028289373405791517520000005727912555175397509_);" d="M748.5,173.65h-0.36l-40.85,40.92h81.83
		L748.5,173.65z"/>
	
		<linearGradient id="SVGID_00000018937011291582126400000013605415303236800142_" gradientUnits="userSpaceOnUse" x1="-1580.6736" y1="2089.5493" x2="-1580.6409" y2="2089.5493" gradientTransform="matrix(795.4583 -795.4791 -795.4791 -795.4583 2920269.5 404922.0938)">
		<stop  offset="0" style="stop-color:#1F96D4"/>
		<stop  offset="0.296" style="stop-color:#1F96D4"/>
		<stop  offset="0.694" style="stop-color:#4B6AB1"/>
		<stop  offset="1" style="stop-color:#64539F"/>
	</linearGradient>
	<path style="fill:url(#SVGID_00000018937011291582126400000013605415303236800142_);" d="M709.47,173.65h-2.18v2.29L709.47,173.65z
		"/>
</g>
<g class="st7">
	
		<linearGradient id="SVGID_00000164515523494245316800000009141524950083878314_" gradientUnits="userSpaceOnUse" x1="-1581.1543" y1="2090.9597" x2="-1581.124" y2="2090.9597" gradientTransform="matrix(2326.3811 -2326.3811 -2326.3811 -2326.3811 8543307 1186210.125)">
		<stop  offset="0" style="stop-color:#AF5EA1"/>
		<stop  offset="0.108" style="stop-color:#AF5EA1"/>
		<stop  offset="0.173" style="stop-color:#C65FA0"/>
		<stop  offset="0.492" style="stop-color:#E97650"/>
		<stop  offset="0.716" style="stop-color:#F0821E"/>
		<stop  offset="0.823" style="stop-color:#F1871A"/>
		<stop  offset="1" style="stop-color:#F1871A"/>
	</linearGradient>
	<path style="fill:url(#SVGID_00000164515523494245316800000009141524950083878314_);" d="M658.85,138.69h-37.78L585,176.63h35.85
		l0.17-0.17L658.85,138.69z"/>
	
		<linearGradient id="SVGID_00000152951918940425914110000017227214224103773107_" gradientUnits="userSpaceOnUse" x1="-1580.517" y1="2091.4492" x2="-1580.4866" y2="2091.4492" gradientTransform="matrix(1133.9193 -1133.9193 -1133.9193 -1133.9193 4164320.75 579584)">
		<stop  offset="0" style="stop-color:#44A7DF"/>
		<stop  offset="0.296" style="stop-color:#44A7DF"/>
		<stop  offset="0.694" style="stop-color:#5878BA"/>
		<stop  offset="1" style="stop-color:#6E5FA6"/>
	</linearGradient>
	<path style="fill:url(#SVGID_00000152951918940425914110000017227214224103773107_);" d="M658.85,214.56h-75.87H658.85z
		 M621.01,176.46l-0.17,0.17h0.34L621.01,176.46z"/>
	
		<linearGradient id="SVGID_00000136392149970438796880000010407608266194614717_" gradientUnits="userSpaceOnUse" x1="-1580.7544" y1="2089.6377" x2="-1580.724" y2="2089.6377" gradientTransform="matrix(795.4583 -795.4791 -795.4791 -795.4583 2920269.5 404922.0938)">
		<stop  offset="0" style="stop-color:#44A7DF"/>
		<stop  offset="0.296" style="stop-color:#44A7DF"/>
		<stop  offset="0.694" style="stop-color:#5878BA"/>
		<stop  offset="1" style="stop-color:#6E5FA6"/>
	</linearGradient>
	<path style="fill:url(#SVGID_00000136392149970438796880000010407608266194614717_);" d="M621.07,138.69h-38.09v40.06v-2.12H585
		L621.07,138.69z"/>
	
		<linearGradient id="SVGID_00000151542495124632265430000008710146102044864696_" gradientUnits="userSpaceOnUse" x1="-1581.1543" y1="2090.9595" x2="-1581.124" y2="2090.9595" gradientTransform="matrix(2326.3811 -2326.3811 -2326.3811 -2326.3811 8543307 1186210.125)">
		<stop  offset="0" style="stop-color:#A65099"/>
		<stop  offset="0.108" style="stop-color:#A65099"/>
		<stop  offset="0.173" style="stop-color:#B35194"/>
		<stop  offset="0.492" style="stop-color:#CB6645"/>
		<stop  offset="0.716" style="stop-color:#D87213"/>
		<stop  offset="0.823" style="stop-color:#DE770D"/>
		<stop  offset="1" style="stop-color:#DE770D"/>
	</linearGradient>
	<path style="fill:url(#SVGID_00000151542495124632265430000008710146102044864696_);" d="M620.85,176.63H585l-2.02,2.12v35.81
		L620.85,176.63z"/>
	
		<linearGradient id="SVGID_00000101075183863836151010000017696856583677476237_" gradientUnits="userSpaceOnUse" x1="-1580.517" y1="2091.4492" x2="-1580.4866" y2="2091.4492" gradientTransform="matrix(1133.9193 -1133.9193 -1133.9193 -1133.9193 4164320.75 579584)">
		<stop  offset="0" style="stop-color:#1F96D4"/>
		<stop  offset="0.296" style="stop-color:#1F96D4"/>
		<stop  offset="0.694" style="stop-color:#4B6AB1"/>
		<stop  offset="1" style="stop-color:#64539F"/>
	</linearGradient>
	<path style="fill:url(#SVGID_00000101075183863836151010000017696856583677476237_);" d="M621.19,176.63h-0.34l-37.87,37.94h75.87
		L621.19,176.63z"/>
	
		<linearGradient id="SVGID_00000154403032515636638310000000969547980376875701_" gradientUnits="userSpaceOnUse" x1="-1580.7544" y1="2089.6257" x2="-1580.724" y2="2089.6257" gradientTransform="matrix(795.4583 -795.4791 -795.4791 -795.4583 2920269.5 404922.0938)">
		<stop  offset="0" style="stop-color:#1F96D4"/>
		<stop  offset="0.296" style="stop-color:#1F96D4"/>
		<stop  offset="0.694" style="stop-color:#4B6AB1"/>
		<stop  offset="1" style="stop-color:#64539F"/>
	</linearGradient>
	<path style="fill:url(#SVGID_00000154403032515636638310000000969547980376875701_);" d="M585,176.63h-2.02v2.12L585,176.63z"/>
</g>
<g class="st14">
	
		<linearGradient id="SVGID_00000065761846925012803420000006751738099005724546_" gradientUnits="userSpaceOnUse" x1="-1581.1813" y1="2090.9861" x2="-1581.153" y2="2090.9861" gradientTransform="matrix(2326.3811 -2326.3811 -2326.3811 -2326.3811 8543307 1186210.125)">
		<stop  offset="0" style="stop-color:#AF5EA1"/>
		<stop  offset="0.108" style="stop-color:#AF5EA1"/>
		<stop  offset="0.173" style="stop-color:#C65FA0"/>
		<stop  offset="0.492" style="stop-color:#E97650"/>
		<stop  offset="0.716" style="stop-color:#F0821E"/>
		<stop  offset="0.823" style="stop-color:#F1871A"/>
		<stop  offset="1" style="stop-color:#F1871A"/>
	</linearGradient>
	<path style="fill:url(#SVGID_00000065761846925012803420000006751738099005724546_);" d="M529.03,144.64h-35.26l-33.67,35.41h33.46
		l0.16-0.16L529.03,144.64z"/>
	
		<linearGradient id="SVGID_00000078039037799657487650000017052192025211493552_" gradientUnits="userSpaceOnUse" x1="-1580.5726" y1="2091.5049" x2="-1580.5443" y2="2091.5049" gradientTransform="matrix(1133.9193 -1133.9193 -1133.9193 -1133.9193 4164320.75 579584)">
		<stop  offset="0" style="stop-color:#44A7DF"/>
		<stop  offset="0.296" style="stop-color:#44A7DF"/>
		<stop  offset="0.694" style="stop-color:#5878BA"/>
		<stop  offset="1" style="stop-color:#6E5FA6"/>
	</linearGradient>
	<path style="fill:url(#SVGID_00000078039037799657487650000017052192025211493552_);" d="M529.03,215.45h-70.81H529.03z
		 M493.72,179.89l-0.16,0.16h0.32L493.72,179.89z"/>
	
		<linearGradient id="SVGID_00000054947058831294718320000016418489910078183555_" gradientUnits="userSpaceOnUse" x1="-1580.8356" y1="2089.7131" x2="-1580.8073" y2="2089.7131" gradientTransform="matrix(795.4583 -795.4791 -795.4791 -795.4583 2920269.5 404922.0938)">
		<stop  offset="0" style="stop-color:#44A7DF"/>
		<stop  offset="0.296" style="stop-color:#44A7DF"/>
		<stop  offset="0.694" style="stop-color:#5878BA"/>
		<stop  offset="1" style="stop-color:#6E5FA6"/>
	</linearGradient>
	<path style="fill:url(#SVGID_00000054947058831294718320000016418489910078183555_);" d="M493.77,144.64h-35.55v37.39v-1.98h1.89
		L493.77,144.64z"/>
	
		<linearGradient id="SVGID_00000072261112718300476120000013474725155184605373_" gradientUnits="userSpaceOnUse" x1="-1581.1813" y1="2090.9858" x2="-1581.153" y2="2090.9858" gradientTransform="matrix(2326.3811 -2326.3811 -2326.3811 -2326.3811 8543307 1186210.125)">
		<stop  offset="0" style="stop-color:#A65099"/>
		<stop  offset="0.108" style="stop-color:#A65099"/>
		<stop  offset="0.173" style="stop-color:#B35194"/>
		<stop  offset="0.492" style="stop-color:#CB6645"/>
		<stop  offset="0.716" style="stop-color:#D87213"/>
		<stop  offset="0.823" style="stop-color:#DE770D"/>
		<stop  offset="1" style="stop-color:#DE770D"/>
	</linearGradient>
	<path style="fill:url(#SVGID_00000072261112718300476120000013474725155184605373_);" d="M493.56,180.04H460.1l-1.89,1.98v33.42
		L493.56,180.04z"/>
	
		<linearGradient id="SVGID_00000123440520723771054510000002952409972876335507_" gradientUnits="userSpaceOnUse" x1="-1580.5726" y1="2091.5049" x2="-1580.5443" y2="2091.5049" gradientTransform="matrix(1133.9193 -1133.9193 -1133.9193 -1133.9193 4164320.75 579584)">
		<stop  offset="0" style="stop-color:#1F96D4"/>
		<stop  offset="0.296" style="stop-color:#1F96D4"/>
		<stop  offset="0.694" style="stop-color:#4B6AB1"/>
		<stop  offset="1" style="stop-color:#64539F"/>
	</linearGradient>
	<path style="fill:url(#SVGID_00000123440520723771054510000002952409972876335507_);" d="M493.88,180.04h-0.32l-35.35,35.41h70.81
		L493.88,180.04z"/>
	
		<linearGradient id="SVGID_00000139268535981853406950000003312795695814379176_" gradientUnits="userSpaceOnUse" x1="-1580.8356" y1="2089.7019" x2="-1580.8073" y2="2089.7019" gradientTransform="matrix(795.4583 -795.4791 -795.4791 -795.4583 2920269.5 404922.0938)">
		<stop  offset="0" style="stop-color:#1F96D4"/>
		<stop  offset="0.296" style="stop-color:#1F96D4"/>
		<stop  offset="0.694" style="stop-color:#4B6AB1"/>
		<stop  offset="1" style="stop-color:#64539F"/>
	</linearGradient>
	<path style="fill:url(#SVGID_00000139268535981853406950000003312795695814379176_);" d="M460.1,180.04h-1.89v1.98L460.1,180.04z"
		/>
</g>
<g class="st21">
	
		<linearGradient id="SVGID_00000164494467380380042530000014010250075894392243_" gradientUnits="userSpaceOnUse" x1="-1581.2079" y1="2091.0125" x2="-1581.1818" y2="2091.0125" gradientTransform="matrix(2326.3811 -2326.3811 -2326.3811 -2326.3811 8543307 1186210.125)">
		<stop  offset="0" style="stop-color:#AF5EA1"/>
		<stop  offset="0.108" style="stop-color:#AF5EA1"/>
		<stop  offset="0.173" style="stop-color:#C65FA0"/>
		<stop  offset="0.492" style="stop-color:#E97650"/>
		<stop  offset="0.716" style="stop-color:#F0821E"/>
		<stop  offset="0.823" style="stop-color:#F1871A"/>
		<stop  offset="1" style="stop-color:#F1871A"/>
	</linearGradient>
	<path style="fill:url(#SVGID_00000164494467380380042530000014010250075894392243_);" d="M398.93,150.25h-32.47l-31,32.6h30.81
		l0.14-0.15L398.93,150.25z"/>
	
		<linearGradient id="SVGID_00000129885653221817601140000012254726931985314693_" gradientUnits="userSpaceOnUse" x1="-1580.6279" y1="2091.561" x2="-1580.6018" y2="2091.561" gradientTransform="matrix(1133.9193 -1133.9193 -1133.9193 -1133.9193 4164320.75 579584)">
		<stop  offset="0" style="stop-color:#44A7DF"/>
		<stop  offset="0.296" style="stop-color:#44A7DF"/>
		<stop  offset="0.694" style="stop-color:#5878BA"/>
		<stop  offset="1" style="stop-color:#6E5FA6"/>
	</linearGradient>
	<path style="fill:url(#SVGID_00000129885653221817601140000012254726931985314693_);" d="M398.93,215.45h-65.2H398.93z
		 M366.42,182.7l-0.14,0.15h0.29L366.42,182.7z"/>
	
		<linearGradient id="SVGID_00000078007120257738558590000001103523617932764822_" gradientUnits="userSpaceOnUse" x1="-1580.9164" y1="2089.7888" x2="-1580.8903" y2="2089.7888" gradientTransform="matrix(795.4583 -795.4791 -795.4791 -795.4583 2920269.5 404922.0938)">
		<stop  offset="0" style="stop-color:#44A7DF"/>
		<stop  offset="0.296" style="stop-color:#44A7DF"/>
		<stop  offset="0.694" style="stop-color:#5878BA"/>
		<stop  offset="1" style="stop-color:#6E5FA6"/>
	</linearGradient>
	<path style="fill:url(#SVGID_00000078007120257738558590000001103523617932764822_);" d="M366.47,150.25h-32.74v34.43v-1.83h1.74
		L366.47,150.25z"/>
	
		<linearGradient id="SVGID_00000108290212307970555100000002992156854598750608_" gradientUnits="userSpaceOnUse" x1="-1581.2079" y1="2091.0122" x2="-1581.1818" y2="2091.0122" gradientTransform="matrix(2326.3811 -2326.3811 -2326.3811 -2326.3811 8543307 1186210.125)">
		<stop  offset="0" style="stop-color:#A65099"/>
		<stop  offset="0.108" style="stop-color:#A65099"/>
		<stop  offset="0.173" style="stop-color:#B35194"/>
		<stop  offset="0.492" style="stop-color:#CB6645"/>
		<stop  offset="0.716" style="stop-color:#D87213"/>
		<stop  offset="0.823" style="stop-color:#DE770D"/>
		<stop  offset="1" style="stop-color:#DE770D"/>
	</linearGradient>
	<path style="fill:url(#SVGID_00000108290212307970555100000002992156854598750608_);" d="M366.27,182.85h-30.81l-1.74,1.83v30.78
		L366.27,182.85z"/>
	
		<linearGradient id="SVGID_00000182524240881772174200000002419071673870189978_" gradientUnits="userSpaceOnUse" x1="-1580.6279" y1="2091.561" x2="-1580.6018" y2="2091.561" gradientTransform="matrix(1133.9193 -1133.9193 -1133.9193 -1133.9193 4164320.75 579584)">
		<stop  offset="0" style="stop-color:#1F96D4"/>
		<stop  offset="0.296" style="stop-color:#1F96D4"/>
		<stop  offset="0.694" style="stop-color:#4B6AB1"/>
		<stop  offset="1" style="stop-color:#64539F"/>
	</linearGradient>
	<path style="fill:url(#SVGID_00000182524240881772174200000002419071673870189978_);" d="M366.56,182.85h-0.29l-32.54,32.6h65.2
		L366.56,182.85z"/>
	
		<linearGradient id="SVGID_00000080921465228428653110000003948503218357107842_" gradientUnits="userSpaceOnUse" x1="-1580.9164" y1="2089.7786" x2="-1580.8903" y2="2089.7786" gradientTransform="matrix(795.4583 -795.4791 -795.4791 -795.4583 2920269.5 404922.0938)">
		<stop  offset="0" style="stop-color:#1F96D4"/>
		<stop  offset="0.296" style="stop-color:#1F96D4"/>
		<stop  offset="0.694" style="stop-color:#4B6AB1"/>
		<stop  offset="1" style="stop-color:#64539F"/>
	</linearGradient>
	<path style="fill:url(#SVGID_00000080921465228428653110000003948503218357107842_);" d="M335.46,182.85h-1.74v1.83L335.46,182.85z
		"/>
</g>
<g class="st28">
	
		<linearGradient id="SVGID_00000069395905753386312070000006975802773438099368_" gradientUnits="userSpaceOnUse" x1="-1581.2346" y1="2091.0391" x2="-1581.2103" y2="2091.0391" gradientTransform="matrix(2326.3811 -2326.3811 -2326.3811 -2326.3811 8543307 1186210.125)">
		<stop  offset="0" style="stop-color:#AF5EA1"/>
		<stop  offset="0.108" style="stop-color:#AF5EA1"/>
		<stop  offset="0.173" style="stop-color:#C65FA0"/>
		<stop  offset="0.492" style="stop-color:#E97650"/>
		<stop  offset="0.716" style="stop-color:#F0821E"/>
		<stop  offset="0.823" style="stop-color:#F1871A"/>
		<stop  offset="1" style="stop-color:#F1871A"/>
	</linearGradient>
	<path style="fill:url(#SVGID_00000069395905753386312070000006975802773438099368_);" d="M269.42,154.69h-30.25l-28.89,30.38h28.71
		l0.13-0.14L269.42,154.69z"/>
	
		<linearGradient id="SVGID_00000065070922032859074660000004295669731802531506_" gradientUnits="userSpaceOnUse" x1="-1580.6833" y1="2091.6172" x2="-1580.6591" y2="2091.6172" gradientTransform="matrix(1133.9193 -1133.9193 -1133.9193 -1133.9193 4164320.75 579584)">
		<stop  offset="0" style="stop-color:#44A7DF"/>
		<stop  offset="0.296" style="stop-color:#44A7DF"/>
		<stop  offset="0.694" style="stop-color:#5878BA"/>
		<stop  offset="1" style="stop-color:#6E5FA6"/>
	</linearGradient>
	<path style="fill:url(#SVGID_00000065070922032859074660000004295669731802531506_);" d="M269.42,215.45h-60.76H269.42z
		 M239.12,184.94l-0.13,0.14h0.27L239.12,184.94z"/>
	
		<linearGradient id="SVGID_00000036960827903568174930000004191967132886856882_" gradientUnits="userSpaceOnUse" x1="-1580.9969" y1="2089.8652" x2="-1580.9727" y2="2089.8652" gradientTransform="matrix(795.4583 -795.4791 -795.4791 -795.4583 2920269.5 404922.0938)">
		<stop  offset="0" style="stop-color:#44A7DF"/>
		<stop  offset="0.296" style="stop-color:#44A7DF"/>
		<stop  offset="0.694" style="stop-color:#5878BA"/>
		<stop  offset="1" style="stop-color:#6E5FA6"/>
	</linearGradient>
	<path style="fill:url(#SVGID_00000036960827903568174930000004191967132886856882_);" d="M239.17,154.69h-30.51v32.08v-1.7h1.62
		L239.17,154.69z"/>
	
		<linearGradient id="SVGID_00000004506803996526583240000013581724647363351994_" gradientUnits="userSpaceOnUse" x1="-1581.2346" y1="2091.0388" x2="-1581.2103" y2="2091.0388" gradientTransform="matrix(2326.3811 -2326.3811 -2326.3811 -2326.3811 8543307 1186210.125)">
		<stop  offset="0" style="stop-color:#A65099"/>
		<stop  offset="0.108" style="stop-color:#A65099"/>
		<stop  offset="0.173" style="stop-color:#B35194"/>
		<stop  offset="0.492" style="stop-color:#CB6645"/>
		<stop  offset="0.716" style="stop-color:#D87213"/>
		<stop  offset="0.823" style="stop-color:#DE770D"/>
		<stop  offset="1" style="stop-color:#DE770D"/>
	</linearGradient>
	<path style="fill:url(#SVGID_00000004506803996526583240000013581724647363351994_);" d="M238.99,185.07h-28.71l-1.62,1.7v28.68
		L238.99,185.07z"/>
	
		<linearGradient id="SVGID_00000019663294594782136570000012322942602689004473_" gradientUnits="userSpaceOnUse" x1="-1580.6833" y1="2091.6172" x2="-1580.6591" y2="2091.6172" gradientTransform="matrix(1133.9193 -1133.9193 -1133.9193 -1133.9193 4164320.75 579584)">
		<stop  offset="0" style="stop-color:#1F96D4"/>
		<stop  offset="0.296" style="stop-color:#1F96D4"/>
		<stop  offset="0.694" style="stop-color:#4B6AB1"/>
		<stop  offset="1" style="stop-color:#64539F"/>
	</linearGradient>
	<path style="fill:url(#SVGID_00000019663294594782136570000012322942602689004473_);" d="M239.26,185.07h-0.27l-30.33,30.38h60.76
		L239.26,185.07z"/>
	
		<linearGradient id="SVGID_00000005972040138853001100000006225610485048376205_" gradientUnits="userSpaceOnUse" x1="-1580.9969" y1="2089.8557" x2="-1580.9727" y2="2089.8557" gradientTransform="matrix(795.4583 -795.4791 -795.4791 -795.4583 2920269.5 404922.0938)">
		<stop  offset="0" style="stop-color:#1F96D4"/>
		<stop  offset="0.296" style="stop-color:#1F96D4"/>
		<stop  offset="0.694" style="stop-color:#4B6AB1"/>
		<stop  offset="1" style="stop-color:#64539F"/>
	</linearGradient>
	<path style="fill:url(#SVGID_00000005972040138853001100000006225610485048376205_);" d="M210.28,185.07h-1.62v1.7L210.28,185.07z"
		/>
</g>
<g>
	<path class="st35" d="M694.97,226.03h94v94h-94V226.03z"/>
	<path class="st36" d="M719.69,304.58l7.19-4.35c1.39,2.46,2.65,4.54,5.68,4.54c2.9,0,4.73-1.14,4.73-5.55v-30.04h8.83v30.16
		c0,9.15-5.36,13.31-13.19,13.31C725.87,312.66,721.77,309,719.69,304.58"/>
	<path class="st36" d="M750.93,303.63l7.19-4.16c1.89,3.09,4.35,5.36,8.71,5.36c3.66,0,5.99-1.83,5.99-4.35
		c0-3.03-2.4-4.1-6.44-5.87l-2.21-0.95c-6.37-2.71-10.6-6.12-10.6-13.31c0-6.63,5.05-11.67,12.94-11.67c5.62,0,9.65,1.96,12.56,7.07
		l-6.88,4.42c-1.51-2.71-3.15-3.79-5.68-3.79c-2.59,0-4.23,1.64-4.23,3.79c0,2.65,1.64,3.72,5.43,5.36l2.21,0.95
		c7.51,3.22,11.74,6.5,11.74,13.88c0,7.95-6.25,12.3-14.64,12.3C758.81,312.66,753.51,308.74,750.93,303.63"/>
</g>
<g class="st7">
	<path class="st35" d="M567.28,235.29h84.15v84.15h-84.15V235.29z"/>
	<path class="st36" d="M589.4,305.61l6.44-3.9c1.24,2.2,2.37,4.07,5.08,4.07c2.6,0,4.24-1.02,4.24-4.97v-26.89h7.91v27
		c0,8.19-4.8,11.92-11.81,11.92C594.94,312.84,591.27,309.56,589.4,305.61"/>
	<path class="st36" d="M617.37,304.76l6.44-3.73c1.7,2.77,3.9,4.8,7.8,4.8c3.28,0,5.37-1.64,5.37-3.9c0-2.71-2.15-3.67-5.76-5.25
		l-1.98-0.85c-5.71-2.43-9.49-5.48-9.49-11.92c0-5.93,4.52-10.45,11.58-10.45c5.03,0,8.64,1.75,11.24,6.33l-6.16,3.95
		c-1.36-2.43-2.82-3.39-5.08-3.39c-2.32,0-3.78,1.47-3.78,3.39c0,2.37,1.47,3.33,4.86,4.8l1.98,0.85
		c6.72,2.88,10.51,5.82,10.51,12.43c0,7.12-5.59,11.01-13.1,11.01C624.43,312.84,619.68,309.33,617.37,304.76"/>
</g>
<g class="st14">
	<path class="st35" d="M437.92,241.8h77.63v77.63h-77.63V241.8z"/>
	<path class="st36" d="M458.33,306.68l5.94-3.6c1.15,2.03,2.19,3.75,4.69,3.75c2.4,0,3.91-0.94,3.91-4.59v-24.8h7.3v24.91
		c0,7.56-4.43,11-10.89,11C463.44,313.35,460.05,310.32,458.33,306.68"/>
	<path class="st36" d="M484.13,305.9l5.94-3.44c1.56,2.55,3.6,4.43,7.19,4.43c3.02,0,4.95-1.51,4.95-3.6c0-2.5-1.98-3.39-5.32-4.85
		l-1.82-0.78c-5.26-2.24-8.75-5.05-8.75-10.99c0-5.47,4.17-9.64,10.68-9.64c4.64,0,7.97,1.62,10.37,5.84l-5.68,3.65
		c-1.25-2.24-2.61-3.13-4.69-3.13c-2.14,0-3.49,1.35-3.49,3.13c0,2.19,1.35,3.07,4.48,4.43l1.82,0.78c6.2,2.66,9.69,5.37,9.69,11.46
		c0,6.57-5.16,10.16-12.09,10.16C490.64,313.35,486.26,310.12,484.13,305.9"/>
</g>
<g class="st21">
	<path class="st35" d="M308.85,248.32h70.52v70.52h-70.52V248.32z"/>
	<path class="st36" d="M327.4,307.25l5.4-3.27c1.04,1.85,1.99,3.41,4.26,3.41c2.18,0,3.55-0.85,3.55-4.17V280.7h6.63v22.63
		c0,6.86-4.02,9.99-9.89,9.99C332.03,313.31,328.96,310.57,327.4,307.25"/>
	<path class="st36" d="M350.83,306.54l5.4-3.12c1.42,2.32,3.27,4.02,6.53,4.02c2.75,0,4.5-1.37,4.5-3.27c0-2.27-1.8-3.08-4.83-4.4
		l-1.66-0.71c-4.78-2.04-7.95-4.59-7.95-9.99c0-4.97,3.79-8.76,9.7-8.76c4.21,0,7.24,1.47,9.42,5.3l-5.16,3.31
		c-1.14-2.04-2.37-2.84-4.26-2.84c-1.94,0-3.17,1.23-3.17,2.84c0,1.99,1.23,2.79,4.07,4.02l1.66,0.71c5.63,2.41,8.8,4.88,8.8,10.41
		c0,5.96-4.69,9.23-10.98,9.23C356.75,313.31,352.77,310.38,350.83,306.54"/>
</g>
<g class="st28">
	<path class="st35" d="M179.2,254.25h64.59v64.59H179.2V254.25z"/>
	<path class="st36" d="M196.18,308.23l4.94-2.99c0.95,1.69,1.82,3.12,3.9,3.12c1.99,0,3.25-0.78,3.25-3.82V283.9h6.07v20.72
		c0,6.29-3.69,9.15-9.06,9.15C200.43,313.78,197.61,311.26,196.18,308.23"/>
	<path class="st36" d="M217.64,307.58l4.94-2.86c1.3,2.12,2.99,3.69,5.98,3.69c2.52,0,4.12-1.26,4.12-2.99
		c0-2.08-1.65-2.82-4.42-4.03l-1.52-0.65c-4.38-1.86-7.28-4.21-7.28-9.15c0-4.55,3.47-8.02,8.89-8.02c3.86,0,6.63,1.34,8.63,4.86
		l-4.73,3.03c-1.04-1.86-2.17-2.6-3.9-2.6c-1.78,0-2.91,1.13-2.91,2.6c0,1.82,1.13,2.56,3.73,3.69l1.52,0.65
		c5.16,2.21,8.06,4.47,8.06,9.54c0,5.46-4.29,8.45-10.06,8.45C223.06,313.78,219.42,311.09,217.64,307.58"/>
</g>
<g>
	<path class="st37" d="M769.47,103.97h-0.27v-0.15h0.73v0.15h-0.27v0.76h-0.19V103.97z M770.93,104L770.93,104l-0.27,0.72h-0.12
		l-0.27-0.72h0v0.72h-0.18v-0.91h0.26l0.25,0.64l0.25-0.64h0.26v0.91h-0.17L770.93,104z"/>
	<path class="st38" d="M745.17,85.36c0,0-1.89,1.1,1.34,1.47c3.92,0.45,5.92,0.38,10.24-0.43c0,0,1.13,0.71,2.72,1.33
		C749.79,91.87,737.57,87.49,745.17,85.36 M743.99,79.95c0,0-2.12,1.57,1.12,1.9c4.18,0.43,7.49,0.47,13.21-0.63
		c0,0,0.79,0.8,2.03,1.24C748.65,85.88,735.62,82.73,743.99,79.95"/>
	<path class="st37" d="M753.96,70.77c2.38,2.75-0.63,5.22-0.63,5.22s6.05-3.13,3.27-7.04c-2.6-3.65-4.59-5.46,6.19-11.72
		C762.8,57.23,745.87,61.46,753.96,70.77"/>
	<path class="st38" d="M766.75,89.37c0,0,1.4,1.15-1.54,2.04c-5.59,1.69-23.25,2.2-28.15,0.07c-1.76-0.77,1.54-1.83,2.58-2.06
		c1.09-0.24,1.71-0.19,1.71-0.19c-1.96-1.38-12.68,2.71-5.44,3.89C755.64,96.32,771.87,91.67,766.75,89.37 M746.08,74.34
		c0,0-8.98,2.13-3.18,2.91c2.45,0.33,7.33,0.25,11.88-0.13c3.72-0.31,7.45-0.98,7.45-0.98s-1.31,0.56-2.26,1.21
		c-9.12,2.4-26.75,1.28-21.67-1.17C742.59,74.11,746.08,74.34,746.08,74.34 M762.19,83.35c9.27-4.82,4.99-9.45,1.99-8.83
		c-0.73,0.15-1.06,0.28-1.06,0.28s0.27-0.43,0.79-0.61c5.92-2.08,10.47,6.14-1.91,9.4C762.01,83.6,762.15,83.47,762.19,83.35"/>
	<path class="st37" d="M756.6,47.14c0,0,5.14,5.14-4.87,13.04c-8.02,6.34-1.83,9.95,0,14.08c-4.68-4.23-8.12-7.95-5.82-11.41
		C749.3,57.76,758.68,55.3,756.6,47.14"/>
	<path class="st38" d="M746.99,96.41c8.9,0.57,22.57-0.32,22.89-4.53c0,0-0.62,1.6-7.36,2.86c-7.6,1.43-16.97,1.26-22.53,0.35
		C740,95.09,741.14,96.04,746.99,96.41"/>
	<path class="st37" d="M745.53,112.51c-0.84,0.73-1.73,1.14-2.52,1.14c-1.14,0-1.75-0.68-1.75-1.77c0-1.18,0.66-2.05,3.3-2.05h0.98
		L745.53,112.51 M747.85,115.12v-8.09c0-2.07-1.18-3.43-4.02-3.43c-1.66,0-3.11,0.41-4.29,0.93l0.34,1.43
		c0.93-0.34,2.13-0.66,3.32-0.66c1.64,0,2.34,0.66,2.34,2.02v1.02h-0.82c-3.98,0-5.77,1.54-5.77,3.86c0,2,1.18,3.14,3.41,3.14
		c1.43,0,2.5-0.59,3.5-1.46l0.18,1.23L747.85,115.12L747.85,115.12z M755.58,115.12h-2.89l-3.48-11.32h2.52l2.16,6.95l0.48,2.09
		c1.09-3.02,1.86-6.09,2.25-9.05h2.46C758.42,107.53,757.24,111.62,755.58,115.12 M766.67,112.51c-0.84,0.73-1.73,1.14-2.53,1.14
		c-1.13,0-1.75-0.68-1.75-1.77c0-1.18,0.66-2.05,3.3-2.05h0.98V112.51 M768.98,115.12v-8.09c0-2.07-1.18-3.43-4.02-3.43
		c-1.66,0-3.11,0.41-4.3,0.93l0.34,1.43c0.93-0.34,2.14-0.66,3.32-0.66c1.64,0,2.34,0.66,2.34,2.02v1.02h-0.82
		c-3.98,0-5.77,1.54-5.77,3.86c0,2,1.18,3.14,3.41,3.14c1.43,0,2.5-0.59,3.5-1.46l0.18,1.23L768.98,115.12L768.98,115.12z
		 M736.4,117.04c-0.66,0.96-1.73,1.73-2.9,2.16l-1.14-1.35c0.89-0.46,1.65-1.19,2.01-1.88c0.31-0.61,0.43-1.4,0.43-3.28V99.78h2.46
		v12.75C737.26,115.04,737.06,116.05,736.4,117.04"/>
</g>
<g class="st7">
	<path class="st37" d="M652.68,105.3h-0.25v-0.14h0.67v0.14h-0.25v0.69h-0.17V105.3z M654.01,105.33L654.01,105.33l-0.25,0.66h-0.11
		l-0.24-0.66h0v0.66h-0.16v-0.83h0.24l0.23,0.59l0.23-0.59h0.24v0.83h-0.16L654.01,105.33z"/>
	<path class="st38" d="M630.5,88.33c0,0-1.72,1,1.23,1.34c3.57,0.41,5.4,0.35,9.34-0.4c0,0,1.04,0.65,2.48,1.21
		C634.72,94.27,623.57,90.26,630.5,88.33 M629.42,83.39c0,0-1.93,1.43,1.02,1.74c3.82,0.39,6.83,0.43,12.05-0.58
		c0,0,0.72,0.73,1.86,1.13C633.67,88.8,621.78,85.92,629.42,83.39"/>
	<path class="st37" d="M638.52,75.01c2.18,2.5-0.57,4.76-0.57,4.76s5.52-2.85,2.99-6.42c-2.37-3.33-4.19-4.98,5.65-10.69
		C646.58,62.66,631.14,66.51,638.52,75.01"/>
	<path class="st38" d="M650.19,91.98c0,0,1.28,1.05-1.4,1.86c-5.1,1.54-21.21,2.01-25.69,0.06c-1.61-0.7,1.41-1.67,2.36-1.88
		c0.99-0.21,1.56-0.17,1.56-0.17c-1.79-1.26-11.57,2.48-4.97,3.55C640.05,98.32,654.86,94.08,650.19,91.98 M631.33,78.27
		c0,0-8.2,1.95-2.9,2.65c2.24,0.3,6.69,0.23,10.84-0.12c3.39-0.29,6.8-0.89,6.8-0.89s-1.2,0.51-2.06,1.1
		c-8.32,2.19-24.41,1.17-19.78-1.07C628.15,78.06,631.33,78.27,631.33,78.27 M646.03,86.49c8.46-4.4,4.55-8.62,1.82-8.05
		c-0.67,0.14-0.97,0.26-0.97,0.26s0.25-0.39,0.72-0.56c5.4-1.9,9.56,5.6-1.74,8.57C645.86,86.71,646,86.6,646.03,86.49"/>
	<path class="st37" d="M640.93,53.44c0,0,4.69,4.69-4.44,11.9c-7.32,5.78-1.67,9.08,0,12.85c-4.27-3.86-7.41-7.25-5.31-10.41
		C634.27,63.14,642.82,60.89,640.93,53.44"/>
	<path class="st38" d="M632.16,98.41c8.12,0.52,20.6-0.29,20.89-4.13c0,0-0.57,1.46-6.71,2.61c-6.93,1.3-15.48,1.15-20.55,0.32
		C625.78,97.2,626.82,98.06,632.16,98.41"/>
	<path class="st37" d="M630.83,113.09c-0.77,0.66-1.58,1.04-2.3,1.04c-1.04,0-1.6-0.62-1.6-1.62c0-1.08,0.6-1.87,3.01-1.87h0.89
		L630.83,113.09 M632.94,115.48v-7.38c0-1.89-1.08-3.13-3.67-3.13c-1.51,0-2.84,0.37-3.92,0.85l0.31,1.31
		c0.85-0.31,1.95-0.6,3.03-0.6c1.49,0,2.14,0.6,2.14,1.85v0.93h-0.75c-3.63,0-5.27,1.41-5.27,3.52c0,1.83,1.08,2.86,3.11,2.86
		c1.31,0,2.28-0.54,3.19-1.33l0.17,1.12L632.94,115.48L632.94,115.48z M640,115.48h-2.64l-3.17-10.33h2.3l1.97,6.35l0.44,1.91
		c1-2.76,1.7-5.56,2.05-8.25h2.24C642.59,108.55,641.51,112.28,640,115.48 M650.12,113.09c-0.77,0.66-1.58,1.04-2.3,1.04
		c-1.03,0-1.6-0.62-1.6-1.62c0-1.08,0.6-1.87,3.01-1.87h0.89V113.09 M652.23,115.48v-7.38c0-1.89-1.08-3.13-3.67-3.13
		c-1.52,0-2.84,0.37-3.92,0.85l0.31,1.31c0.85-0.31,1.95-0.6,3.03-0.6c1.49,0,2.14,0.6,2.14,1.85v0.93h-0.75
		c-3.63,0-5.27,1.41-5.27,3.52c0,1.83,1.08,2.86,3.11,2.86c1.31,0,2.28-0.54,3.19-1.33l0.17,1.12L652.23,115.48L652.23,115.48z
		 M622.5,117.23c-0.6,0.88-1.58,1.58-2.64,1.97l-1.04-1.23c0.81-0.42,1.51-1.09,1.83-1.71c0.28-0.56,0.4-1.27,0.4-2.99v-11.79h2.25
		v11.63C623.28,115.4,623.1,116.33,622.5,117.23"/>
</g>
<g class="st14">
	<path class="st37" d="M535.87,107.53h-0.22v-0.13h0.6v0.13h-0.22v0.62h-0.16V107.53z M537.08,107.56L537.08,107.56l-0.23,0.59h-0.1
		l-0.22-0.59h0v0.59h-0.15v-0.75h0.22l0.2,0.53l0.2-0.53h0.22v0.75h-0.14L537.08,107.56z"/>
	<path class="st38" d="M515.83,92.19c0,0-1.56,0.91,1.11,1.21c3.23,0.37,4.88,0.32,8.44-0.36c0,0,0.94,0.59,2.24,1.1
		C519.64,97.56,509.56,93.94,515.83,92.19 M514.86,87.72c0,0-1.75,1.29,0.92,1.57c3.45,0.36,6.18,0.39,10.89-0.52
		c0,0,0.65,0.66,1.68,1.02C518.7,92.61,507.95,90.02,514.86,87.72"/>
	<path class="st37" d="M523.08,80.15c1.97,2.26-0.52,4.3-0.52,4.3s4.99-2.58,2.7-5.8c-2.14-3.01-3.78-4.5,5.11-9.66
		C530.37,68.99,516.41,72.47,523.08,80.15"/>
	<path class="st38" d="M533.63,95.49c0,0,1.15,0.95-1.27,1.68c-4.61,1.4-19.17,1.82-23.22,0.06c-1.45-0.63,1.27-1.51,2.13-1.7
		c0.89-0.19,1.41-0.16,1.41-0.16c-1.62-1.14-10.45,2.24-4.49,3.2C524.46,101.22,537.85,97.39,533.63,95.49 M516.58,83.1
		c0,0-7.41,1.76-2.62,2.4c2.02,0.27,6.05,0.21,9.8-0.11c3.07-0.26,6.14-0.81,6.14-0.81s-1.08,0.46-1.86,1
		c-7.52,1.98-22.06,1.06-17.87-0.97C513.7,82.91,516.58,83.1,516.58,83.1 M529.87,90.53c7.65-3.97,4.11-7.79,1.64-7.28
		c-0.6,0.13-0.87,0.23-0.87,0.23s0.22-0.35,0.65-0.5c4.88-1.72,8.64,5.06-1.58,7.75C529.72,90.73,529.84,90.62,529.87,90.53"/>
	<path class="st37" d="M525.26,60.66c0,0,4.24,4.24-4.02,10.75c-6.62,5.23-1.51,8.21,0,11.61c-3.86-3.49-6.7-6.55-4.8-9.41
		C519.24,69.43,526.97,67.39,525.26,60.66"/>
	<path class="st38" d="M517.33,101.3c7.34,0.47,18.61-0.26,18.88-3.73c0,0-0.51,1.32-6.07,2.36c-6.27,1.18-13.99,1.04-18.58,0.29
		C511.57,100.21,512.51,100.99,517.33,101.3"/>
	<path class="st37" d="M516.13,114.57c-0.69,0.6-1.42,0.94-2.08,0.94c-0.94,0-1.44-0.56-1.44-1.46c0-0.97,0.54-1.69,2.72-1.69h0.81
		L516.13,114.57 M518.04,116.72v-6.67c0-1.7-0.97-2.83-3.32-2.83c-1.37,0-2.57,0.34-3.54,0.77l0.28,1.18
		c0.77-0.28,1.76-0.54,2.73-0.54c1.35,0,1.93,0.54,1.93,1.67v0.84h-0.67c-3.28,0-4.76,1.27-4.76,3.19c0,1.65,0.98,2.59,2.81,2.59
		c1.18,0,2.06-0.49,2.89-1.2l0.15,1.01L518.04,116.72L518.04,116.72z M524.42,116.72h-2.38l-2.87-9.33h2.08l1.78,5.73l0.4,1.72
		c0.9-2.49,1.54-5.02,1.86-7.46h2.02C526.76,110.46,525.78,113.84,524.42,116.72 M533.56,114.57c-0.69,0.6-1.43,0.94-2.08,0.94
		c-0.94,0-1.44-0.56-1.44-1.46c0-0.97,0.54-1.69,2.72-1.69h0.81V114.57 M535.47,116.72v-6.67c0-1.7-0.97-2.83-3.32-2.83
		c-1.37,0-2.57,0.34-3.54,0.77l0.28,1.18c0.77-0.28,1.76-0.54,2.74-0.54c1.35,0,1.93,0.54,1.93,1.67v0.84h-0.68
		c-3.28,0-4.76,1.27-4.76,3.19c0,1.65,0.97,2.59,2.81,2.59c1.18,0,2.06-0.49,2.89-1.2l0.15,1.01L535.47,116.72L535.47,116.72z
		 M508.6,118.31c-0.54,0.8-1.42,1.42-2.39,1.78l-0.94-1.11c0.73-0.38,1.36-0.98,1.65-1.55c0.25-0.5,0.36-1.15,0.36-2.7v-10.66h2.03
		v10.51C509.31,116.65,509.14,117.49,508.6,118.31"/>
</g>
<g class="st28">
	<path class="st37" d="M301.69,110.7h-0.17v-0.09h0.45v0.09h-0.17v0.47h-0.12V110.7z M302.59,110.72L302.59,110.72l-0.17,0.44h-0.08
		l-0.16-0.44h0v0.44h-0.11v-0.56h0.16l0.15,0.4l0.15-0.4h0.16v0.56h-0.11L302.59,110.72z"/>
	<path class="st38" d="M286.71,99.23c0,0-1.16,0.68,0.83,0.91c2.41,0.28,3.65,0.24,6.31-0.27c0,0,0.7,0.44,1.68,0.82
		C289.56,103.25,282.02,100.54,286.71,99.23 M285.98,95.9c0,0-1.31,0.97,0.69,1.17c2.58,0.27,4.62,0.29,8.14-0.39
		c0,0,0.49,0.49,1.25,0.76C288.85,99.55,280.82,97.61,285.98,95.9"/>
	<path class="st37" d="M292.12,90.24c1.47,1.69-0.39,3.21-0.39,3.21s3.73-1.93,2.02-4.34c-1.6-2.25-2.83-3.37,3.82-7.22
		C297.57,81.89,287.14,84.5,292.12,90.24"/>
	<path class="st38" d="M300.01,101.7c0,0,0.86,0.71-0.95,1.26c-3.44,1.04-14.33,1.36-17.35,0.04c-1.09-0.47,0.95-1.13,1.59-1.27
		c0.67-0.15,1.05-0.12,1.05-0.12c-1.21-0.85-7.81,1.67-3.36,2.4C293.16,105.98,303.17,103.12,300.01,101.7 M287.27,92.44
		c0,0-5.54,1.32-1.96,1.79c1.51,0.2,4.52,0.16,7.33-0.08c2.29-0.19,4.59-0.6,4.59-0.6s-0.81,0.35-1.39,0.75
		c-5.62,1.48-16.49,0.79-13.36-0.72C285.12,92.29,287.27,92.44,287.27,92.44 M297.2,97.99c5.72-2.97,3.07-5.83,1.23-5.44
		c-0.45,0.09-0.65,0.18-0.65,0.18s0.17-0.26,0.49-0.38c3.65-1.28,6.46,3.78-1.18,5.79C297.09,98.14,297.18,98.06,297.2,97.99"/>
	<path class="st37" d="M293.76,75.67c0,0,3.17,3.17-3,8.04c-4.95,3.91-1.13,6.13,0,8.68c-2.89-2.61-5.01-4.9-3.58-7.03
		C289.25,82.22,295.03,80.7,293.76,75.67"/>
	<path class="st38" d="M287.83,106.04c5.49,0.35,13.91-0.19,14.11-2.79c0,0-0.38,0.98-4.53,1.77c-4.68,0.88-10.46,0.78-13.89,0.21
		C283.52,105.23,284.22,105.81,287.83,106.04"/>
	<path class="st37" d="M286.93,115.96c-0.52,0.45-1.06,0.7-1.55,0.7c-0.7,0-1.08-0.42-1.08-1.09c0-0.73,0.41-1.26,2.03-1.26h0.6
		L286.93,115.96 M288.36,117.57v-4.99c0-1.27-0.73-2.12-2.48-2.12c-1.02,0-1.92,0.25-2.65,0.57l0.21,0.88
		c0.57-0.21,1.32-0.41,2.04-0.41c1.01,0,1.44,0.41,1.44,1.25v0.63h-0.5c-2.45,0-3.56,0.95-3.56,2.38c0,1.23,0.73,1.93,2.1,1.93
		c0.88,0,1.54-0.36,2.16-0.9l0.11,0.76L288.36,117.57L288.36,117.57z M293.13,117.57h-1.78l-2.14-6.98h1.56l1.33,4.29l0.3,1.29
		c0.67-1.86,1.15-3.76,1.39-5.58h1.51C294.88,112.89,294.15,115.42,293.13,117.57 M299.96,115.96c-0.52,0.45-1.07,0.7-1.56,0.7
		c-0.7,0-1.08-0.42-1.08-1.09c0-0.73,0.41-1.26,2.03-1.26h0.6V115.96 M301.39,117.57v-4.99c0-1.27-0.73-2.12-2.48-2.12
		c-1.02,0-1.92,0.25-2.65,0.57l0.21,0.88c0.57-0.21,1.32-0.41,2.05-0.41c1.01,0,1.44,0.41,1.44,1.25v0.63h-0.5
		c-2.45,0-3.56,0.95-3.56,2.38c0,1.23,0.73,1.93,2.1,1.93c0.88,0,1.54-0.36,2.16-0.9l0.11,0.76L301.39,117.57L301.39,117.57z
		 M281.3,118.76c-0.41,0.59-1.06,1.06-1.78,1.33l-0.71-0.83c0.55-0.28,1.02-0.74,1.24-1.16c0.19-0.38,0.27-0.86,0.27-2.02v-7.97
		h1.52v7.86C281.83,117.52,281.71,118.15,281.3,118.76"/>
</g>
<g class="st21">
	<path class="st37" d="M418.97,108.95h-0.2v-0.11h0.53v0.11h-0.2v0.55h-0.14V108.95z M420.04,108.98L420.04,108.98l-0.2,0.53h-0.09
		l-0.2-0.53h0v0.53h-0.13v-0.67h0.19l0.18,0.47l0.18-0.47h0.19v0.67h-0.13L420.04,108.98z"/>
	<path class="st38" d="M401.2,95.35c0,0-1.38,0.8,0.98,1.07c2.86,0.33,4.33,0.28,7.48-0.32c0,0,0.83,0.52,1.99,0.97
		C404.58,100.11,395.64,96.9,401.2,95.35 M400.34,91.39c0,0-1.55,1.15,0.82,1.39c3.06,0.32,5.48,0.34,9.66-0.46
		c0,0,0.58,0.59,1.49,0.91C403.74,95.73,394.21,93.43,400.34,91.39"/>
	<path class="st37" d="M407.62,84.68c1.74,2.01-0.46,3.81-0.46,3.81s4.43-2.29,2.39-5.15c-1.9-2.67-3.35-3.99,4.53-8.57
		C414.09,74.78,401.72,77.87,407.62,84.68"/>
	<path class="st38" d="M416.98,98.28c0,0,1.02,0.84-1.13,1.49c-4.08,1.24-17,1.61-20.58,0.05c-1.29-0.56,1.13-1.34,1.89-1.5
		c0.79-0.17,1.25-0.14,1.25-0.14c-1.43-1.01-9.27,1.98-3.98,2.84C408.85,103.36,420.72,99.96,416.98,98.28 M401.86,87.29
		c0,0-6.57,1.56-2.33,2.13c1.79,0.24,5.36,0.19,8.69-0.09c2.72-0.23,5.45-0.72,5.45-0.72s-0.96,0.41-1.65,0.88
		c-6.67,1.75-19.56,0.94-15.85-0.86C399.31,87.12,401.86,87.29,401.86,87.29 M413.65,93.88c6.78-3.52,3.65-6.91,1.46-6.45
		c-0.54,0.11-0.78,0.21-0.78,0.21s0.2-0.31,0.58-0.45c4.33-1.52,7.66,4.49-1.4,6.87C413.51,94.06,413.62,93.96,413.65,93.88"/>
	<path class="st37" d="M409.56,67.4c0,0,3.76,3.76-3.56,9.53c-5.87,4.63-1.34,7.28,0,10.29c-3.42-3.09-5.94-5.81-4.25-8.34
		C404.22,75.17,411.07,73.37,409.56,67.4"/>
	<path class="st38" d="M402.53,103.43c6.51,0.42,16.5-0.23,16.74-3.31c0,0-0.45,1.17-5.38,2.09c-5.55,1.05-12.41,0.92-16.47,0.25
		C397.42,102.46,398.25,103.15,402.53,103.43"/>
	<path class="st37" d="M401.46,115.19c-0.61,0.53-1.26,0.83-1.84,0.83c-0.83,0-1.28-0.5-1.28-1.3c0-0.86,0.48-1.5,2.41-1.5h0.71
		L401.46,115.19 M403.16,117.11v-5.92c0-1.51-0.86-2.51-2.94-2.51c-1.21,0-2.28,0.3-3.14,0.68l0.25,1.05
		c0.68-0.25,1.56-0.48,2.42-0.48c1.2,0,1.71,0.48,1.71,1.48v0.75h-0.6c-2.91,0-4.22,1.13-4.22,2.82c0,1.46,0.86,2.29,2.49,2.29
		c1.05,0,1.83-0.43,2.56-1.06l0.13,0.9L403.16,117.11L403.16,117.11z M408.81,117.11h-2.11l-2.54-8.28H406l1.58,5.08l0.35,1.53
		c0.8-2.21,1.36-4.45,1.65-6.61h1.79C410.89,111.56,410.02,114.55,408.81,117.11 M416.92,115.19c-0.62,0.53-1.26,0.83-1.85,0.83
		c-0.83,0-1.28-0.5-1.28-1.3c0-0.86,0.48-1.5,2.41-1.5h0.72V115.19 M418.61,117.11v-5.92c0-1.51-0.86-2.51-2.94-2.51
		c-1.21,0-2.28,0.3-3.14,0.68l0.25,1.05c0.68-0.25,1.56-0.48,2.43-0.48c1.2,0,1.71,0.48,1.71,1.48v0.75h-0.6
		c-2.91,0-4.22,1.13-4.22,2.82c0,1.46,0.86,2.29,2.49,2.29c1.05,0,1.83-0.43,2.56-1.06l0.13,0.9L418.61,117.11L418.61,117.11z
		 M394.79,118.51c-0.48,0.71-1.26,1.26-2.12,1.58l-0.84-0.98c0.65-0.33,1.21-0.87,1.47-1.37c0.22-0.45,0.32-1.02,0.32-2.4v-9.45h1.8
		v9.32C395.42,117.04,395.27,117.79,394.79,118.51"/>
</g>
<g>
	<polygon class="st39" points="666.75,447.69 733.42,562.69 800.08,447.69 773.4,447.69 733.41,517.02 693.05,447.67 	"/>
	<polygon class="st40" points="693.06,447.67 733.41,517.03 773.4,447.69 748.64,447.69 733.37,474.37 717.64,447.64 	"/>
</g>
<g class="st7">
	<polygon class="st39" points="527.8,461.4 586.52,562.69 645.24,461.4 621.74,461.4 586.51,522.47 550.97,461.38 	"/>
	<polygon class="st40" points="550.97,461.38 586.52,522.47 621.74,461.4 599.93,461.4 586.48,484.9 572.63,461.36 	"/>
</g>
<g class="st14">
	<polygon class="st39" points="386.16,474.94 437.03,562.69 487.91,474.94 467.55,474.93 437.03,527.84 406.23,474.92 	"/>
	<polygon class="st40" points="406.23,474.92 437.03,527.85 467.54,474.94 448.65,474.93 437,495.3 424.99,474.9 	"/>
</g>
<g class="st21">
	<polygon class="st39" points="243.8,486.58 287.93,562.69 332.05,486.58 314.39,486.58 287.92,532.47 261.21,486.56 	"/>
	<polygon class="st40" points="261.21,486.56 287.93,532.47 314.39,486.58 298,486.58 287.9,504.24 277.49,486.54 	"/>
</g>
<g class="st41">
	<polygon class="st39" points="101.88,496.94 139.99,562.69 178.11,496.94 162.86,496.94 139.99,536.58 116.92,496.93 	"/>
	<polygon class="st40" points="116.92,496.93 139.99,536.58 162.85,496.94 148.7,496.94 139.97,512.2 130.98,496.92 	"/>
</g>
<g>
	<g>
		<polygon class="st42" points="690.5,332.47 783.08,332.47 774.8,423.31 737.3,434.36 698.06,423.31 		"/>
		<path class="st43" d="M736.72,340.46h37.94l-7.7,78.63l-30.23,8.58C736.72,427.67,736.57,340.46,736.72,340.46z"/>
	</g>
	<g>
		<path class="st44" d="M712.45,354.13h48.98v10.76h-37.94v10.9h35.61v30.67l-22.24,7.41l-21.8-7.27v-14.39h10.61v8.14l11.19,2.76
			l12.35-3.05v-13.08h-36.77C712.45,386.98,712.88,354.13,712.45,354.13z"/>
		<rect x="736.96" y="354.09" class="st45" width="24.47" height="10.79"/>
		<polygon class="st45" points="736.97,375.78 759.05,375.78 759.05,406.36 736.72,413.87 736.72,402.96 749.29,400.06 
			749.29,386.94 737.01,386.94 		"/>
	</g>
</g>
<g class="st7">
	<g>
		<polygon class="st42" points="554.5,340.77 639.55,340.77 631.94,424.21 597.49,434.36 561.44,424.21 		"/>
		<path class="st43" d="M596.96,348.11h34.85l-7.08,72.23l-27.77,7.88C596.96,428.22,596.82,348.11,596.96,348.11z"/>
	</g>
	<g>
		<path class="st44" d="M574.66,360.66h44.99v9.88h-34.85v10.01h32.71v28.17l-20.43,6.81l-20.03-6.68v-13.22h9.75v7.48l10.28,2.54
			l11.35-2.8v-12.02h-33.78C574.66,390.83,575.06,360.66,574.66,360.66z"/>
		<rect x="597.18" y="360.63" class="st45" width="22.47" height="9.91"/>
		<polygon class="st45" points="597.19,380.55 617.47,380.55 617.47,408.64 596.96,415.53 596.96,405.52 608.5,402.85 608.5,390.8 
			597.22,390.8 		"/>
	</g>
</g>
<g class="st14">
	<g>
		<polygon class="st42" points="415.24,347.29 494.36,347.29 487.28,424.92 455.24,434.36 421.7,424.92 		"/>
		<path class="st43" d="M454.74,354.12h32.42l-6.58,67.2l-25.84,7.33C454.74,428.65,454.61,354.12,454.74,354.12z"/>
	</g>
	<g>
		<path class="st44" d="M434,365.79h41.86v9.19h-32.42v9.32h30.43v26.21l-19,6.33l-18.63-6.21v-12.3h9.07v6.96l9.56,2.36l10.56-2.61
			v-11.18H434C434,393.87,434.37,365.79,434,365.79z"/>
		<rect x="454.95" y="365.76" class="st45" width="20.91" height="9.22"/>
		<polygon class="st45" points="454.96,384.3 473.83,384.3 473.83,410.43 454.74,416.85 454.74,407.53 465.48,405.05 465.48,393.83 
			454.99,393.83 		"/>
	</g>
</g>
<g class="st21">
	<g>
		<polygon class="st42" points="277.16,353.8 350.37,353.8 343.82,425.63 314.17,434.36 283.14,425.63 		"/>
		<path class="st43" d="M313.71,360.12h29.99l-6.09,62.17l-23.9,6.78C313.71,429.07,313.59,360.12,313.71,360.12z"/>
	</g>
	<g>
		<path class="st44" d="M294.52,370.93h38.73v8.5h-29.99v8.62h28.15v24.25l-17.58,5.86l-17.24-5.75v-11.38h8.39v6.44l8.85,2.18
			l9.77-2.41V396.9h-29.07C294.52,396.9,294.86,370.93,294.52,370.93z"/>
		<rect x="313.9" y="370.9" class="st45" width="19.34" height="8.53"/>
		<polygon class="st45" points="313.91,388.05 331.37,388.05 331.37,412.22 313.71,418.16 313.71,409.54 323.65,407.24 
			323.65,396.87 313.94,396.87 		"/>
	</g>
</g>
<g class="st28">
	<g>
		<polygon class="st42" points="137.61,359.73 205.43,359.73 199.36,426.27 171.89,434.36 143.15,426.27 		"/>
		<path class="st43" d="M171.46,365.59h27.79l-5.64,57.6l-22.14,6.28C171.46,429.46,171.36,365.59,171.46,365.59z"/>
	</g>
	<g>
		<path class="st44" d="M153.68,375.59h35.88v7.88h-27.79v7.98h26.08v22.46l-16.29,5.43l-15.97-5.32v-10.54h7.77v5.96l8.2,2.02
			l9.05-2.24v-9.58h-26.93C153.68,399.65,154,375.59,153.68,375.59z"/>
		<rect x="171.64" y="375.57" class="st45" width="17.92" height="7.9"/>
		<polygon class="st45" points="171.65,391.46 187.82,391.46 187.82,413.85 171.46,419.35 171.46,411.36 180.67,409.23 
			180.67,399.63 171.68,399.63 		"/>
	</g>
</g>
</svg>
